<svg xmlns="http://www.w3.org/2000/svg" version="1.1" xmlns:xlink="http://www.w3.org/1999/xlink" xmlns:svgjs="http://svgjs.com/svgjs" width="1440" height="560" preserveAspectRatio="none" viewBox="0 0 1440 560"><g mask="url(&quot;#SvgjsMask1279&quot;)" fill="none"><rect width="1440" height="560" x="0" y="0" fill="rgba(255, 255, 255, 1)"></rect><use xlink:href="#SvgjsG1283" transform="translate(0, 0)" fill="rgba(190, 197, 207, 1)"></use><use xlink:href="#SvgjsG1283" transform="translate(902, 0)" fill="rgba(190, 197, 207, 1)"></use></g><defs><mask id="SvgjsMask1279"><rect width="1440" height="560" fill="#ffffff"></rect></mask><g id="SvgjsG1280"><path d="M7.45 12.652S6.4 11.121 3.725 11.121C1.274 11.121 0 11.833 0 11.833V1.937s1.274-0.712 3.725-0.729C6.4 1.19 7.45 2.756 7.45 2.756V12.652z m1.087 0s1.05-1.531 3.725-1.531c2.451 0 3.725 0.712 3.725 0.713V1.937s-1.274-0.712-3.725-0.729c-2.675-0.017-3.725 1.548-3.725 1.548v9.896z"></path><path d="M8.012 15.733S6.4 13.411 3.725 13.411c-2.451 0-3.725 0.712-3.725 0.712v-1.186s1.274-0.712 3.725-0.729c2.675-0.018 4.287 2.34 4.287 2.34V15.733z m0 0s1.612-2.323 4.287-2.323c2.451 0 3.725 0.712 3.725 0.712v-1.185s-1.274-0.712-3.725-0.729c-2.675-0.019-4.287 2.339-4.287 2.339v1.185z"></path></g><g id="SvgjsG1281"><path d="M2.115 12.192a1.05 1.05 0 1 1 0-2.1 1.05 1.05 0 0 1 0 2.1zM0 16V13.942c0-0.742 0.61-1.344 1.352-1.344h1.45c0.743 0 1.406 0.603 1.406 1.345V16H0z m13-3.897a1.051 1.051 0 0 0 1.05-1.05 1.05 1.05 0 0 0-2.099 0 1.05 1.05 0 0 0 1.051 1.049zM15.114 16V13.942c0-0.742-0.61-1.344-1.353-1.344h-1.448c-0.744 0-1.406 0.603-1.407 1.345V16h4.208z"></path><path d="M6.494 11.133a1.062 1.053 0 1 0 2.124 0 1.062 1.053 0 1 0-2.124 0"></path><path d="M4.998 16l0.836-2.277c0.335-1.163 1.31-1.128 1.309-1.127h0.828s0.974-0.036 1.309 1.127L10.116 16h-5.118z m2.558-7.25v-2.491l-0.414-0.414v2.49H0.885V0.414h6.257V4.483l0.414 0.414V0H0.474v8.75h7.082z m5.44-4.548a1.049 1.049 0 0 1-1.048-1.048c0-0.579 0.47-1.049 1.048-1.049a1.047 1.047 0 0 1 1.047 1.048 1.046 1.046 0 0 1-1.048 1.048z"></path><path d="M8.329 6.958a0.441 0.441 0 0 0 0.442 0.442h1.454c0.165 0 0.382-0.066 0.474-0.205 0.314-0.464 0.643-0.953 0.741-1.1v2.749h3.661V6.025c0-0.737-0.576-1.401-1.256-1.4 0.002 0.346 0 0.118 0-0.015H12.082a1.343 1.343 0 0 0-1.119 0.599l-0.871 1.313-1.32-0.001L6.907 4.656a0.179 0.179 0 0 0-0.254 0 0.18 0.18 0 0 0 0 0.254l1.774 1.775c-0.038 0.063-0.098 0.192-0.097 0.273z"></path></g><g id="SvgjsG1282"><path d="M10.638 8.247l-4.284-0.705 0.615-0.438 1.029 0.143 1.027-0.143 1.613 1.143zM7.998 0.15c0.859 0 1.555 0.696 1.555 1.556 0 0.859-0.548 1.556-1.555 1.555-0.859 0-1.556-0.696-1.557-1.555 0-0.86 0.697-1.556 1.557-1.556z m0.387 11.242v3.759A0.849 0.849 0 0 0 9.234 16a0.849 0.849 0 0 0 0.849-0.849V11.392c0-0.468-0.38-0.849-0.849-0.849a0.85 0.85 0 0 0-0.849 0.849z m5.202 2.146a0.493 0.493 0 0 1-0.492 0.494h-2.604v-2.463h1.126V9.11a0.493 0.493 0 0 1 0.492-0.492h0.986a0.493 0.493 0 0 1 0.492 0.492v4.429z m-5.609 0.494H2.923a0.493 0.493 0 0 1-0.493-0.494V9.11c0-0.271 0.22-0.492 0.493-0.492h0.985a0.493 0.493 0 0 1 0.493 0.492v2.459h3.577v2.462zM5.316 8.72a0.85 0.85 0 0 0 0.7 0.976l3.709 0.611a0.85 0.85 0 0 0 0.976-0.7c0.076-0.463-0.237-0.9-0.7-0.975L6.292 8.02a0.85 0.85 0 0 0-0.976 0.7z"></path><path d="M7.998 4.499l2.016-0.329v1.418l0.996 0.748c0.096 0.096 0.057 0.207 0.034 0.238-0.057 0.075-0.163 0.09-0.237 0.034l-1.257-0.949a0.577 0.577 0 0 0-0.665 0.942l2.146 1.508c0.1 0.071 0.242 0.118 0.383 0.118 0.12 0 0.263-0.05 0.368-0.124 0.225-0.16 0.308-0.444 0.232-0.706L11.216 5.041c-0.213-0.585-0.75-1.274-1.556-1.275H6.334c-0.806 0-1.343 0.689-1.556 1.275l-0.797 2.356c-0.077 0.262 0.007 0.545 0.232 0.705 0.105 0.075 0.247 0.125 0.367 0.125 0.142 0 0.284-0.047 0.384-0.118l2.147-1.508a0.577 0.577 0 0 0-0.666-0.942l-1.257 0.949a0.17 0.17 0 0 1-0.237-0.034c-0.023-0.031-0.062-0.141 0.034-0.237 0 0 0.675-0.507 0.996-0.749v-1.418l2.017 0.329z"></path></g><g id="SvgjsG1283"><use xlink:href="#SvgjsG1280" transform="translate(0, 0) scale(2.2)" fill="rgba(190, 197, 207, 1)"></use><use xlink:href="#SvgjsG1280" transform="translate(0, 90.2) scale(2.2)" fill="rgba(190, 197, 207, 1)"></use><use xlink:href="#SvgjsG1280" transform="translate(0, 180.4) scale(2.2)" fill="rgba(190, 197, 207, 1)"></use><use xlink:href="#SvgjsG1281" transform="translate(0, 270.6) scale(2.2)" fill="rgba(190, 197, 207, 1)"></use><use xlink:href="#SvgjsG1281" transform="translate(0, 360.8) scale(2.2)" fill="rgba(190, 197, 207, 1)"></use><use xlink:href="#SvgjsG1282" transform="translate(0, 451) scale(2.2)" fill="rgba(190, 197, 207, 1)"></use><use xlink:href="#SvgjsG1280" transform="translate(0, 541.2) scale(2.2)" fill="rgba(190, 197, 207, 1)"></use><use xlink:href="#SvgjsG1282" transform="translate(90.2, 0) scale(2.2)" fill="rgba(190, 197, 207, 1)"></use><use xlink:href="#SvgjsG1281" transform="translate(90.2, 90.2) scale(2.2)" fill="rgba(190, 197, 207, 1)"></use><use xlink:href="#SvgjsG1282" transform="translate(90.2, 180.4) scale(2.2)" fill="rgba(190, 197, 207, 1)"></use><use xlink:href="#SvgjsG1282" transform="translate(90.2, 270.6) scale(2.2)" fill="rgba(190, 197, 207, 1)"></use><use xlink:href="#SvgjsG1280" transform="translate(90.2, 360.8) scale(2.2)" fill="rgba(190, 197, 207, 1)"></use><use xlink:href="#SvgjsG1281" transform="translate(90.2, 451) scale(2.2)" fill="rgba(190, 197, 207, 1)"></use><use xlink:href="#SvgjsG1282" transform="translate(90.2, 541.2) scale(2.2)" fill="rgba(190, 197, 207, 1)"></use><use xlink:href="#SvgjsG1282" transform="translate(180.4, 0) scale(2.2)" fill="rgba(190, 197, 207, 1)"></use><use xlink:href="#SvgjsG1280" transform="translate(180.4, 90.2) scale(2.2)" fill="rgba(190, 197, 207, 1)"></use><use xlink:href="#SvgjsG1282" transform="translate(180.4, 180.4) scale(2.2)" fill="rgba(190, 197, 207, 1)"></use><use xlink:href="#SvgjsG1282" transform="translate(180.4, 270.6) scale(2.2)" fill="rgba(190, 197, 207, 1)"></use><use xlink:href="#SvgjsG1280" transform="translate(180.4, 360.8) scale(2.2)" fill="rgba(190, 197, 207, 1)"></use><use xlink:href="#SvgjsG1280" transform="translate(180.4, 451) scale(2.2)" fill="rgba(190, 197, 207, 1)"></use><use xlink:href="#SvgjsG1280" transform="translate(180.4, 541.2) scale(2.2)" fill="rgba(190, 197, 207, 1)"></use><use xlink:href="#SvgjsG1281" transform="translate(270.6, 0) scale(2.2)" fill="rgba(190, 197, 207, 1)"></use><use xlink:href="#SvgjsG1282" transform="translate(270.6, 90.2) scale(2.2)" fill="rgba(190, 197, 207, 1)"></use><use xlink:href="#SvgjsG1281" transform="translate(270.6, 180.4) scale(2.2)" fill="rgba(190, 197, 207, 1)"></use><use xlink:href="#SvgjsG1280" transform="translate(270.6, 270.6) scale(2.2)" fill="rgba(190, 197, 207, 1)"></use><use xlink:href="#SvgjsG1282" transform="translate(270.6, 360.8) scale(2.2)" fill="rgba(190, 197, 207, 1)"></use><use xlink:href="#SvgjsG1281" transform="translate(270.6, 451) scale(2.2)" fill="rgba(190, 197, 207, 1)"></use><use xlink:href="#SvgjsG1280" transform="translate(270.6, 541.2) scale(2.2)" fill="rgba(190, 197, 207, 1)"></use><use xlink:href="#SvgjsG1282" transform="translate(360.8, 0) scale(2.2)" fill="rgba(190, 197, 207, 1)"></use><use xlink:href="#SvgjsG1282" transform="translate(360.8, 90.2) scale(2.2)" fill="rgba(190, 197, 207, 1)"></use><use xlink:href="#SvgjsG1280" transform="translate(360.8, 180.4) scale(2.2)" fill="rgba(190, 197, 207, 1)"></use><use xlink:href="#SvgjsG1281" transform="translate(360.8, 270.6) scale(2.2)" fill="rgba(190, 197, 207, 1)"></use><use xlink:href="#SvgjsG1282" transform="translate(360.8, 360.8) scale(2.2)" fill="rgba(190, 197, 207, 1)"></use><use xlink:href="#SvgjsG1282" transform="translate(360.8, 451) scale(2.2)" fill="rgba(190, 197, 207, 1)"></use><use xlink:href="#SvgjsG1280" transform="translate(360.8, 541.2) scale(2.2)" fill="rgba(190, 197, 207, 1)"></use><use xlink:href="#SvgjsG1280" transform="translate(451, 0) scale(2.2)" fill="rgba(190, 197, 207, 1)"></use><use xlink:href="#SvgjsG1280" transform="translate(451, 90.2) scale(2.2)" fill="rgba(190, 197, 207, 1)"></use><use xlink:href="#SvgjsG1282" transform="translate(451, 180.4) scale(2.2)" fill="rgba(190, 197, 207, 1)"></use><use xlink:href="#SvgjsG1282" transform="translate(451, 270.6) scale(2.2)" fill="rgba(190, 197, 207, 1)"></use><use xlink:href="#SvgjsG1281" transform="translate(451, 360.8) scale(2.2)" fill="rgba(190, 197, 207, 1)"></use><use xlink:href="#SvgjsG1280" transform="translate(451, 451) scale(2.2)" fill="rgba(190, 197, 207, 1)"></use><use xlink:href="#SvgjsG1281" transform="translate(451, 541.2) scale(2.2)" fill="rgba(190, 197, 207, 1)"></use><use xlink:href="#SvgjsG1282" transform="translate(541.2, 0) scale(2.2)" fill="rgba(190, 197, 207, 1)"></use><use xlink:href="#SvgjsG1280" transform="translate(541.2, 90.2) scale(2.2)" fill="rgba(190, 197, 207, 1)"></use><use xlink:href="#SvgjsG1282" transform="translate(541.2, 180.4) scale(2.2)" fill="rgba(190, 197, 207, 1)"></use><use xlink:href="#SvgjsG1282" transform="translate(541.2, 270.6) scale(2.2)" fill="rgba(190, 197, 207, 1)"></use><use xlink:href="#SvgjsG1280" transform="translate(541.2, 360.8) scale(2.2)" fill="rgba(190, 197, 207, 1)"></use><use xlink:href="#SvgjsG1282" transform="translate(541.2, 451) scale(2.2)" fill="rgba(190, 197, 207, 1)"></use><use xlink:href="#SvgjsG1281" transform="translate(541.2, 541.2) scale(2.2)" fill="rgba(190, 197, 207, 1)"></use><use xlink:href="#SvgjsG1282" transform="translate(631.4, 0) scale(2.2)" fill="rgba(190, 197, 207, 1)"></use><use xlink:href="#SvgjsG1282" transform="translate(631.4, 90.2) scale(2.2)" fill="rgba(190, 197, 207, 1)"></use><use xlink:href="#SvgjsG1280" transform="translate(631.4, 180.4) scale(2.2)" fill="rgba(190, 197, 207, 1)"></use><use xlink:href="#SvgjsG1282" transform="translate(631.4, 270.6) scale(2.2)" fill="rgba(190, 197, 207, 1)"></use><use xlink:href="#SvgjsG1281" transform="translate(631.4, 360.8) scale(2.2)" fill="rgba(190, 197, 207, 1)"></use><use xlink:href="#SvgjsG1281" transform="translate(631.4, 451) scale(2.2)" fill="rgba(190, 197, 207, 1)"></use><use xlink:href="#SvgjsG1280" transform="translate(631.4, 541.2) scale(2.2)" fill="rgba(190, 197, 207, 1)"></use><use xlink:href="#SvgjsG1282" transform="translate(721.6, 0) scale(2.2)" fill="rgba(190, 197, 207, 1)"></use><use xlink:href="#SvgjsG1282" transform="translate(721.6, 90.2) scale(2.2)" fill="rgba(190, 197, 207, 1)"></use><use xlink:href="#SvgjsG1281" transform="translate(721.6, 180.4) scale(2.2)" fill="rgba(190, 197, 207, 1)"></use><use xlink:href="#SvgjsG1281" transform="translate(721.6, 270.6) scale(2.2)" fill="rgba(190, 197, 207, 1)"></use><use xlink:href="#SvgjsG1282" transform="translate(721.6, 360.8) scale(2.2)" fill="rgba(190, 197, 207, 1)"></use><use xlink:href="#SvgjsG1280" transform="translate(721.6, 451) scale(2.2)" fill="rgba(190, 197, 207, 1)"></use><use xlink:href="#SvgjsG1280" transform="translate(721.6, 541.2) scale(2.2)" fill="rgba(190, 197, 207, 1)"></use><use xlink:href="#SvgjsG1282" transform="translate(811.8000000000001, 0) scale(2.2)" fill="rgba(190, 197, 207, 1)"></use><use xlink:href="#SvgjsG1280" transform="translate(811.8000000000001, 90.2) scale(2.2)" fill="rgba(190, 197, 207, 1)"></use><use xlink:href="#SvgjsG1281" transform="translate(811.8000000000001, 180.4) scale(2.2)" fill="rgba(190, 197, 207, 1)"></use><use xlink:href="#SvgjsG1281" transform="translate(811.8000000000001, 270.6) scale(2.2)" fill="rgba(190, 197, 207, 1)"></use><use xlink:href="#SvgjsG1282" transform="translate(811.8000000000001, 360.8) scale(2.2)" fill="rgba(190, 197, 207, 1)"></use><use xlink:href="#SvgjsG1280" transform="translate(811.8000000000001, 451) scale(2.2)" fill="rgba(190, 197, 207, 1)"></use><use xlink:href="#SvgjsG1281" transform="translate(811.8000000000001, 541.2) scale(2.2)" fill="rgba(190, 197, 207, 1)"></use></g></defs></svg>